<?xml version="1.0" encoding="UTF-8"?> <svg xmlns="http://www.w3.org/2000/svg" version="1.1" viewBox="0 0 512 512"><circle fill="#ffffff" cx="256" cy="256" r="256"></circle><path fill="#00036F" d="M226.7,58.5v97.9H82.8c29.9-51.8,82.4-88.9,143.9-97.9Z"></path><path fill="#00036F" d="M173.5,256.4c0,14.8,3.9,29.2,11.3,41.7H60.4c-2.9-13.4-4.4-27.4-4.4-41.7s1.5-28.2,4.4-41.7h124.4c-7.3,12.5-11.3,26.8-11.3,41.7Z"></path><path fill="#00036F" d="M82.8,356.5h143.9v97.8c-61.6-9-114.1-46.1-143.9-97.8Z"></path><path fill="#00036F" d="M429.1,156.4h-144V58.5c61.6,9,114.1,46.1,144,97.9Z"></path><path fill="#00036F" d="M285.1,356.5h144c-29.9,51.7-82.4,88.8-144,97.8v-97.8Z"></path><path fill="#00036F" d="M456,256.4c0,14.3-1.6,28.3-4.5,41.7h-124.4c7.3-12.5,11.2-26.8,11.2-41.7s-3.9-29.1-11.3-41.7h124.5c2.9,13.5,4.5,27.5,4.5,41.7Z"></path><path fill="#E93328" d="M297.6,256.4c0,11.5-4.7,22-12.2,29.5,0,0-.2.2-.3.3-7.6,7.3-17.8,11.9-29.2,11.9s-21.7-4.6-29.2-11.9c-7.7-7.6-12.5-18.2-12.5-29.7s4.7-21.9,12.2-29.5l.2-.2c7.5-7.4,17.8-12,29.2-12s21.6,4.5,29.2,11.9c0,0,.2.2.3.3,7.5,7.6,12.2,18,12.2,29.5Z"></path></svg> 