<?xml version="1.0" encoding="UTF-8"?> <svg xmlns="http://www.w3.org/2000/svg" width="100" height="26" viewBox="0 0 100 26" fill="none"><path d="M93.8799 16.4718V5.13184H89.8199V20.5318H93.3899H99.9999V16.4718H93.8799Z" fill="#333132"></path><path d="M81.76 5.08154H77.7V20.5215H81.76V5.08154Z" fill="#333132"></path><path d="M64.6299 5.19164C63.1126 5.20358 61.6329 5.6653 60.378 6.51841C59.1232 7.37151 58.1496 8.57765 57.5804 9.98423C57.0112 11.3908 56.872 12.9346 57.1804 14.4203C57.4888 15.906 58.2309 17.2669 59.3129 18.3307C60.395 19.3945 61.7682 20.1135 63.2589 20.3967C64.7497 20.6798 66.2909 20.5145 67.6876 19.9215C69.0843 19.3285 70.2738 18.3346 71.1055 17.0654C71.9372 15.7963 72.3738 14.309 72.36 12.7916C72.3415 10.7592 71.517 8.81711 70.0676 7.3921C68.6182 5.96709 66.6625 5.17566 64.6299 5.19164ZM64.72 16.8516C63.9288 16.8516 63.1555 16.617 62.4977 16.1775C61.8399 15.738 61.3272 15.1133 61.0244 14.3824C60.7217 13.6515 60.6425 12.8472 60.7968 12.0713C60.9512 11.2954 61.3321 10.5826 61.8915 10.0232C62.4509 9.46381 63.1637 9.08284 63.9396 8.9285C64.7155 8.77416 65.5198 8.85338 66.2507 9.15613C66.9816 9.45888 67.6063 9.97157 68.0458 10.6294C68.4854 11.2872 68.72 12.0605 68.72 12.8516C68.72 13.9125 68.2985 14.9299 67.5484 15.6801C66.7982 16.4302 65.7808 16.8516 64.72 16.8516Z" fill="#333132"></path><path d="M44.5699 17.1015L46.1699 15.1015L50.5399 20.5015H55.2399L48.5099 12.2215L54.2499 5.12154H49.5099C49.4777 5.10923 49.4421 5.10923 49.4099 5.12154L44.5699 11.1215V5.12154H40.5699V20.5215H44.5699V17.1015Z" fill="#333132"></path><path d="M27.78 3.24145L8.64001 22.3814L9.09001 22.7414C11.3452 24.514 14.1316 25.4757 17 25.4714C18.8825 25.4655 20.7403 25.0424 22.4397 24.2327C24.1392 23.4229 25.6381 22.2466 26.8286 20.7884C28.0191 19.3301 28.8716 17.6262 29.3249 15.799C29.7782 13.9719 29.8209 12.0671 29.45 10.2214L24.89 14.7814C24.5378 16.1982 23.8047 17.4916 22.77 18.5214C22.0123 19.2792 21.1127 19.8802 20.1227 20.2903C19.1327 20.7004 18.0716 20.9114 17 20.9114C16.68 20.9114 16.37 20.9114 16.06 20.8614L25.13 11.7814L28.89 8.01145L33.67 3.23145L27.78 3.24145Z" fill="#F9C412"></path><path d="M24.85 2.72149C22.8012 1.11203 20.3081 0.169428 17.7069 0.0207628C15.1058 -0.127902 12.5216 0.524514 10.3027 1.89006C8.08382 3.25561 6.33696 5.26863 5.29761 7.65775C4.25826 10.0469 3.97639 12.6972 4.49 15.2515L9 10.7215C9.43978 8.9386 10.4695 7.35679 11.9218 6.23304C13.3742 5.10929 15.1638 4.50963 17 4.53149C17.31 4.53149 17.63 4.53149 17.94 4.58149L13.64 8.88149L5.07 17.4215L0 22.4815H5.79L25.26 3.02149L24.85 2.72149Z" fill="#F9C412"></path></svg> 