<?xml version="1.0" encoding="UTF-8"?> <svg xmlns="http://www.w3.org/2000/svg" width="322" height="318" viewBox="0 0 322 318" fill="none"><g clip-path="url(#clip0_772_1056)"><path d="M243.255 242.313L235.234 311.819C192.455 300.025 158.29 269.519 140.896 230.435L243.255 242.313Z" stroke="white" stroke-width="2"></path><path d="M320.477 197.869C284.605 224.06 239.52 231.823 198.201 221.091L271.286 148.245L320.477 197.869Z" stroke="white" stroke-width="2"></path><path d="M284.777 59.9933C282.829 104.442 260.774 144.63 226.648 170.332L215.42 67.6173L284.777 59.9933Z" stroke="white" stroke-width="2"></path><path d="M155.022 2.01855C188.465 31.2624 206.044 73.6049 204.807 116.387L117.721 61.1494L155.022 2.01855Z" stroke="white" stroke-width="2"></path><path d="M28.9209 67.594C72.5685 59.6073 116.548 72.2282 149.132 99.8723L51.7666 133.702L28.9209 67.594Z" stroke="white" stroke-width="2"></path><path d="M67.2148 230.656L1.42578 207.348C22.4112 168.143 59.6712 141.534 101.542 133.228L67.2148 230.656Z" stroke="white" stroke-width="2"></path><path d="M152.437 278.99L93.2471 316.034C75.7701 275.138 78.251 229.339 97.876 191.333L152.437 278.99Z" stroke="white" stroke-width="2"></path></g><defs><clipPath id="clip0_772_1056"><rect width="322" height="317" fill="white" transform="translate(0 0.5)"></rect></clipPath></defs></svg> 